<svg xmlns="http://www.w3.org/2000/svg" xml:space="preserve" width="1823.5341" height="200" viewBox="0 0 1823.5341 199.99999"><path d="m-223.57 521.752 53.025 34.948a74.472 74.472 0 0 1-9.716 4.384l-45.2-35.488a73.776 73.776 0 0 0 1.891-3.844zM-219.207 509.413l59.886 39.851a74.992 74.992 0 0 1-8.141 5.674l-53.03-41.106a71.923 71.923 0 0 0 1.285-4.419zM-217.005 495.64l66.938 44.839a75.21 75.21 0 0 1-6.79 6.728l-60.636-46.624c.214-1.633.382-3.281.488-4.943zM-217.609 479.936l75.06 50.522a74.518 74.518 0 0 1-5.52 7.684l-68.957-52.737a76.374 76.374 0 0 0-.583-5.47zM-222.922 461.042l86.154 58.197a73.767 73.767 0 0 1-4.207 8.597l-79.61-60.625a74.372 74.372 0 0 0-2.337-6.169zM-229.818 532.829l45.558 29.592a74.313 74.313 0 0 1-11.864 2.577l-36.02-28.942a77.193 77.193 0 0 0 2.326-3.227zM-248.239 428.611c12.003-8.166 26.5-12.948 42.115-12.948 41.42 0 74.997 33.582 74.997 75.003a74.834 74.834 0 0 1-4.315 25.113zM-237.907 542.765l36.103 22.773a80.21 80.21 0 0 1-4.32.125c-4.606 0-9.111-.42-13.49-1.215l-21.018-18.995a74.428 74.428 0 0 0 2.725-2.688zM-280.348 501.405l-75.057-50.546a75.938 75.938 0 0 1 5.522-7.68l68.95 52.756c.128 1.841.325 3.667.585 5.47zM-260.074 438.586l-36.115-22.794c1.442-.08 2.891-.129 4.353-.129 4.634 0 9.165.425 13.564 1.23l20.945 18.983a80.866 80.866 0 0 0-2.747 2.71zM-275.027 520.308l-86.161-58.225a74.337 74.337 0 0 1 4.206-8.596l79.624 60.672a75.029 75.029 0 0 0 2.331 6.149zM-268.15 448.513l-45.556-29.601a73.91 73.91 0 0 1 11.862-2.58l36.023 28.952a73.114 73.114 0 0 0-2.33 3.229zM-280.955 485.7l-66.937-44.854a75.34 75.34 0 0 1 6.794-6.727l60.629 46.655a76.36 76.36 0 0 0-.486 4.926zM-278.753 471.923l-59.877-39.865a74.822 74.822 0 0 1 8.141-5.671l53.018 41.117a72.568 72.568 0 0 0-1.282 4.42zM-274.4 459.604l-53.017-34.974a74.515 74.515 0 0 1 9.72-4.382l45.194 35.496a72.956 72.956 0 0 0-1.897 3.86zM-291.836 565.663c-41.419 0-74.995-33.578-74.995-74.997a74.792 74.792 0 0 1 4.318-25.128l112.78 87.19c-12.005 8.164-26.495 12.935-42.103 12.935z" style="fill:#254aa5;fill-opacity:1;fill-rule:nonzero;stroke:none;stroke-width:3.94832" transform="matrix(1.33333 0 0 -1.33333 489.108 754.218)"/><path d="M-280.955 485.7c.108-1.658.274-3.3.486-4.926l31.492 24.23 25.407 16.748a73.776 73.776 0 0 1-1.891 3.844l-23.516-18.467zM-278.753 471.923c.38-1.49.809-2.963 1.282-4.419l28.494 22.094 29.77 19.815a71.923 71.923 0 0 1-1.286 4.419l-28.484-22.083zM-274.4 459.604a72.956 72.956 0 0 1 1.897-3.86l23.526 18.481 31.972 21.415a74.416 74.416 0 0 1-.488 4.943l-31.484-24.212zM-280.348 501.405a73.768 73.768 0 0 1-.584-5.47l31.955 24.448 19.16 12.446a77.193 77.193 0 0 1-2.328 3.227l-16.832-13.522zM-248.977 535.783l11.07 6.982a74.428 74.428 0 0 1-2.725 2.688l-8.345-7.542-26.05-17.603a75.029 75.029 0 0 1-2.33-6.149zM-268.15 448.513a73.114 73.114 0 0 1 2.329-3.23l16.844 13.536 31.368 21.117c.257 1.802.455 3.628.583 5.469l-31.951-24.436zM-248.977 445.592l-11.097-7.006a80.866 80.866 0 0 1 2.747-2.71l8.35 7.565 26.055 17.601a74.372 74.372 0 0 1 2.337 6.17zM125.861 476.61c6.02 0 10.9 4.883 10.9 10.904 0 6.02-4.88 10.902-10.9 10.902-6.023 0-10.904-4.881-10.904-10.902 0-6.02 4.881-10.904 10.904-10.904z" style="fill:#254aa5;fill-opacity:1;fill-rule:nonzero;stroke:none;stroke-width:3.94832" transform="matrix(1.33333 0 0 -1.33333 489.108 754.218)"/><path d="M191.88 494.62v16.53H59.796v-16.53zM184.367 439.53h-20.049v23.972l-1.958.488H66.864v16.56l99.687-.015c9.848 0 17.831-7.486 17.831-16.723l-.016-24.28z" style="fill:#254aa5;fill-opacity:1;fill-rule:nonzero;stroke:none;stroke-width:3.94832" transform="matrix(1.33333 0 0 -1.33333 489.108 754.218)"/><path d="M184.367 503.063h-20.049V524.3l-1.958.488H66.864v16.562l99.687-.02c9.848 0 17.831-7.485 17.831-16.72l-.016-21.548zM30.91 439.538v105.496H10.866V439.538Z" style="fill:#254aa5;fill-opacity:1;fill-rule:nonzero;stroke:none;stroke-width:3.94832" transform="matrix(1.33333 0 0 -1.33333 489.108 754.218)"/><path d="M39.862 500.703c6.315 0 11.43 5.12 11.43 11.428 0 6.314-5.115 11.43-11.43 11.43-6.309 0-11.43-5.116-11.43-11.43 0-6.308 5.121-11.428 11.43-11.428zM-6.051 533.402h-87.987v-16.528h87.987z" style="fill:#254aa5;fill-opacity:1;fill-rule:nonzero;stroke:none;stroke-width:3.94832" transform="matrix(1.33333 0 0 -1.33333 489.108 754.218)"/><path d="M-39.143 542.563c0 6.021-4.884 10.902-10.903 10.902-6.02 0-10.902-4.881-10.902-10.902 0-6.019 4.882-10.9 10.902-10.9s10.903 4.881 10.903 10.9z" style="fill:#254aa5;fill-opacity:1;fill-rule:nonzero;stroke:none;stroke-width:3.94832" transform="matrix(1.33333 0 0 -1.33333 489.108 754.218)"/><path d="M-79.942 501.91c0 16.51 13.384 29.894 29.89 29.894 16.509 0 29.894-13.384 29.894-29.894 0-16.507-13.385-29.894-29.894-29.894-16.506 0-29.89 13.387-29.89 29.894m29.89-12.31c6.8 0 12.31 5.512 12.31 12.308 0 6.801-5.51 12.311-12.31 12.311-6.795 0-12.307-5.51-12.307-12.311 0-6.796 5.512-12.308 12.307-12.308zM-86.705 472.451h20.048v-16.356l1.96-.004h95.515v-16.56l-99.709.002c-9.847 0-17.831 7.501-17.831 16.736l.016 16.183zM759.347 524.801v16.528h-88.01v-16.528z" style="fill:#254aa5;fill-opacity:1;fill-rule:nonzero;stroke:none;stroke-width:3.94832" transform="matrix(1.33333 0 0 -1.33333 489.108 754.218)"/><path d="m739.737 483.726-24.496 41.087c-6.05 11.024-2.113 19.074 22.007 0l24.496-41.087z" style="fill:#254aa5;fill-opacity:1;fill-rule:nonzero;stroke:none;stroke-width:3.94832" transform="matrix(1.33333 0 0 -1.33333 489.108 754.218)"/><path d="m693.58 524.813-24.678-41.13h22.005l24.677 41.13c8.508 2.979 26.74 17.556-22.005 0zM776.282 439.532v105.499h20.046V439.532Z" style="fill:#254aa5;fill-opacity:1;fill-rule:nonzero;stroke:none;stroke-width:3.94832" transform="matrix(1.33333 0 0 -1.33333 489.108 754.218)"/><path d="M767.344 502.417c-6.31 0-11.428 5.118-11.428 11.43 0 6.312 5.118 11.429 11.428 11.429 6.312 0 11.429-5.117 11.429-11.429s-5.117-11.43-11.429-11.43zM678.83 476.082h20.049v-19.987l1.959-.004h95.494v-16.56l-99.687.016c-9.848 0-17.831 7.486-17.831 16.72l.015 19.813zM641.757 459.448v14.436H524.16v-14.436z" style="fill:#254aa5;fill-opacity:1;fill-rule:nonzero;stroke:none;stroke-width:3.94832" transform="matrix(1.33333 0 0 -1.33333 489.108 754.218)"/><path d="M625.185 493.845c9.138 0 16.545-6.946 16.584-15.514V460.91h-20.081v18.436h-97.513v14.5zM540.724 439.512c-9.134 0-16.545 6.945-16.549 15.515l-.008 17.424h20.039v-18.434h97.531v-14.505H540.724ZM533.36 499.768c-9.135 0-16.543 6.944-16.551 15.513l-.004 26.054h20.034v-27.066h67.962v-14.501h-71.44Z" style="fill:#254aa5;fill-opacity:1;fill-rule:nonzero;stroke:none;stroke-width:3.94832" transform="matrix(1.33333 0 0 -1.33333 489.108 754.218)"/><path d="M641.757 465.513v79.521h-20.046v-79.521zM604.811 504.867v36.476h-20.044v-36.476z" style="fill:#254aa5;fill-opacity:1;fill-rule:nonzero;stroke:none;stroke-width:3.94832" transform="matrix(1.33333 0 0 -1.33333 489.108 754.218)"/><path d="M650.71 500.703c6.316 0 11.429 5.12 11.429 11.428 0 6.314-5.113 11.43-11.428 11.43-6.312 0-11.429-5.116-11.429-11.43 0-6.308 5.117-11.428 11.429-11.428zM604.337 535.424h-69.164v-14.436h69.164zM1000.82 435.812h-5.553V548.72h5.552zM838.861 435.812h-5.552V548.72h5.552zM907.043 439.53v33.84h20.046v-33.84z" style="fill:#254aa5;fill-opacity:1;fill-rule:nonzero;stroke:none;stroke-width:3.94832" transform="matrix(1.33333 0 0 -1.33333 489.108 754.218)"/><path d="M983.108 480.528v-16.533H851.026v16.533zM975.83 541.331H858.306V524.8H975.83z" style="fill:#254aa5;fill-opacity:1;fill-rule:nonzero;stroke:none;stroke-width:3.94832" transform="matrix(1.33333 0 0 -1.33333 489.108 754.218)"/><path d="m903.722 538.079-49.931-49.93h26.69l36.587 36.583zM930.413 538.079l-13.345-13.347 36.584-36.584h26.692z" style="fill:#254aa5;fill-opacity:1;fill-rule:nonzero;stroke:none;stroke-width:3.94832" transform="matrix(1.33333 0 0 -1.33333 489.108 754.218)"/><path d="m903.722 538.079 13.346-13.347 13.345 13.347zM369.296 541.308h20.062v-36.582l1.958-.004h95.466v-16.558h-99.655c-9.846 0-17.825 7.503-17.825 16.738l-.004 36.408z" style="fill:#254aa5;fill-opacity:1;fill-rule:nonzero;stroke:none;stroke-width:3.94832" transform="matrix(1.33333 0 0 -1.33333 489.108 754.218)"/><path d="M486.786 530.439H383.628V513.91h103.158zM419.325 439.564v33.825h20.038v-33.825z" style="fill:#254aa5;fill-opacity:1;fill-rule:nonzero;stroke:none;stroke-width:3.94832" transform="matrix(1.33333 0 0 -1.33333 489.108 754.218)"/><path d="M466.745 491.784v49.532h20.039v-49.532zM495.367 480.543V464.02H363.323v16.522zM320.937 466.122v16.522H216.962v-16.522z" style="fill:#254aa5;fill-opacity:1;fill-rule:nonzero;stroke:none;stroke-width:3.94832" transform="matrix(1.33333 0 0 -1.33333 489.108 754.218)"/><path d="M334.524 439.567v105.466h-20.038V439.567Z" style="fill:#254aa5;fill-opacity:1;fill-rule:nonzero;stroke:none;stroke-width:3.94832" transform="matrix(1.33333 0 0 -1.33333 489.108 754.218)"/><path d="M343.474 500.713c6.314 0 11.426 5.12 11.426 11.428 0 6.312-5.112 11.426-11.426 11.426-6.308 0-11.425-5.114-11.425-11.426 0-6.308 5.117-11.428 11.425-11.428zM216.946 481.65h20.043v-25.528l1.958-.004h95.485v-16.56l-99.676.004c-9.846 0-17.827 7.495-17.827 16.731l.015 25.354zM209.616 541.335h20.064v-28.928l1.957-.004h65.95V495.85h-70.142c-9.843 0-17.825 7.5-17.825 16.732l-.004 28.755z" style="fill:#254aa5;fill-opacity:1;fill-rule:nonzero;stroke:none;stroke-width:3.94832" transform="matrix(1.33333 0 0 -1.33333 489.108 754.218)"/></svg>