<svg xmlns="http://www.w3.org/2000/svg" width="1287.6536mm" height="300mm" viewBox="0 0 1287.6536 300"><path d="M0 0h-2.318l-2.581 4.026-.29-.457V0h-1.962v10.948h1.962V6.355l2.752 4.593h1.952l-3.322-5.122Z" style="fill:#1a5dad;fill-opacity:1;fill-rule:nonzero;stroke:none" transform="matrix(4.54202 0 0 -4.54202 525.383 288.884)"/><path d="M0 0v.298c0 1.351-.093 2.355-.279 3.009-.186.653-.628.981-1.328.981-.646 0-1.075-.29-1.285-.872-.21-.582-.315-1.621-.315-3.118V.029c0-1.507.096-2.542.287-3.104.19-.562.628-.843 1.313-.843.565 0 .974.303 1.227.909C-.127-2.403 0-1.4 0 0m1.983-.145c0-1.727-.329-3.045-.986-3.952-.658-.907-1.526-1.361-2.604-1.361-1.068 0-1.933.454-2.592 1.361-.66.907-.99 2.212-.99 3.916v.624c0 1.587.308 2.881.924 3.883.617 1.001 1.52 1.502 2.709 1.502 1.165 0 2.046-.508 2.643-1.525.598-1.015.896-2.303.896-3.86Z" style="fill:#1a5dad;fill-opacity:1;fill-rule:nonzero;stroke:none" transform="matrix(4.54202 0 0 -4.54202 548.175 264.959)"/><path d="M0 0v.298c0 .478-.103.818-.307 1.022-.205.205-.505.307-.899.307h-.65v-2.911h.541c.467 0 .803.107 1.008.321C-.103-.75 0-.428 0 0m2.152-7.781H.232c-.02 1.763-.156 3.023-.409 3.78-.253.756-.657 1.135-1.212 1.135h-.467v-4.915h-1.962V3.167h3.432c.839 0 1.432-.228 1.782-.683.349-.454.523-1.012.523-1.675V.214c0-.624-.151-1.125-.454-1.502-.303-.377-.756-.599-1.358-.667.68-.257 1.19-.826 1.532-1.709.341-.883.513-2.255.513-4.117" style="fill:#1a5dad;fill-opacity:1;fill-rule:nonzero;stroke:none" transform="matrix(4.54202 0 0 -4.54202 578.361 253.542)"/><path d="M0 0h-5.569v10.948h5.337V9.324h-3.375V6.37h2.615V4.725h-2.615V1.624H0Z" style="fill:#1a5dad;fill-opacity:1;fill-rule:nonzero;stroke:none" transform="matrix(4.54202 0 0 -4.54202 617.711 288.884)"/><path d="m0 0-1.079 4.026L-2.09 0Zm3.077-4.198H1.063L.415-1.583h-2.892l-.657-2.615h-1.595L-1.79 6.75H.05z" style="fill:#1a5dad;fill-opacity:1;fill-rule:nonzero;stroke:none" transform="matrix(4.54202 0 0 -4.54202 639.341 269.818)"/><path d="m0 0-2.428-10.948h-1.439l-1.839 7.134-1.879-7.134h-1.43L-11.431 0h1.986l1.527-6.936L-6.19 0h1.414l1.752-6.936L-1.594 0Z" style="fill:#1a5dad;fill-opacity:1;fill-rule:nonzero;stroke:none" transform="matrix(4.54202 0 0 -4.54202 715.203 239.157)"/><path d="M0 0h-5.569v10.948h5.337V9.324h-3.375V6.37h2.616V4.725h-2.616V1.624H0Z" style="fill:#1a5dad;fill-opacity:1;fill-rule:nonzero;stroke:none" transform="matrix(4.54202 0 0 -4.54202 742.298 288.884)"/><path d="M0 0c0-1.161-.31-2.018-.929-2.572-.619-.553-1.48-.83-2.582-.83-.629 0-1.161.046-1.596.137-.435.092-.793.207-1.074.348v1.877c.222-.168.569-.322 1.039-.463a4.822 4.822 0 0 1 1.388-.212c.641 0 1.083.107 1.324.32.242.213.363.567.363 1.062 0 .318-.087.601-.261.848-.173.246-.668.573-1.483.979-.646.329-1.147.749-1.501 1.259-.355.51-.531 1.205-.531 2.085 0 .842.286 1.552.86 2.133.573.58 1.368.87 2.384.87.489 0 .931-.05 1.325-.152.394-.101.671-.191.831-.27V5.774c-.333.1-.663.188-.991.265a4.639 4.639 0 0 1-1.049.115c-.526 0-.905-.102-1.136-.308a.985.985 0 0 1-.347-.769c0-.386.087-.679.26-.877.173-.199.682-.492 1.524-.878.79-.358 1.351-.811 1.683-1.36C-.167 1.413 0 .759 0 0" style="fill:#1a5dad;fill-opacity:1;fill-rule:nonzero;stroke:none" transform="matrix(4.54202 0 0 -4.54202 771.1 274.103)"/><path d="M0 0h-1.898v-9.324H-3.86V0h-1.941v1.625H0Z" style="fill:#1a5dad;fill-opacity:1;fill-rule:nonzero;stroke:none" transform="matrix(4.54202 0 0 -4.54202 797.86 246.535)"/><path d="M0 0h-5.569v10.948h5.337V9.324h-3.375V6.37h2.615V4.725h-2.615V1.624H0Z" style="fill:#1a5dad;fill-opacity:1;fill-rule:nonzero;stroke:none" transform="matrix(4.54202 0 0 -4.54202 825.768 288.884)"/><path d="M0 0v.298c0 .478-.103.818-.307 1.022-.205.205-.505.307-.899.307h-.65v-2.911h.541c.467 0 .803.107 1.008.321C-.103-.75 0-.428 0 0m2.152-7.781H.232c-.02 1.763-.156 3.023-.409 3.78-.253.756-.657 1.135-1.212 1.135h-.467v-4.915h-1.962V3.167h3.432c.839 0 1.432-.228 1.782-.683.349-.454.523-1.012.523-1.675V.214c0-.624-.151-1.125-.454-1.502-.303-.377-.756-.599-1.358-.667.68-.257 1.19-.826 1.532-1.709.341-.883.513-2.255.513-4.117" style="fill:#1a5dad;fill-opacity:1;fill-rule:nonzero;stroke:none" transform="matrix(4.54202 0 0 -4.54202 846.999 253.542)"/><path d="M0 0h-.834L-5.21 6.857V0h-1.414v10.948h1.065l4.166-6.505v6.505H0Z" style="fill:#1a5dad;fill-opacity:1;fill-rule:nonzero;stroke:none" transform="matrix(4.54202 0 0 -4.54202 890.66 288.884)"/><path d="M0 0v1.059c0 .419-.093.727-.279.927-.187.2-.492.299-.918.299h-.617v-3.438h.718c.31 0 .57.099.78.299.211.2.316.485.316.854m2.025.162c0-.931-.227-1.632-.68-2.104-.453-.473-1.109-.709-1.967-.709h-1.192v-4.43h-1.962V3.868h3.285c.938 0 1.592-.285 1.961-.854.37-.57.555-1.232.555-1.988Z" style="fill:#1a5dad;fill-opacity:1;fill-rule:nonzero;stroke:none" transform="matrix(4.54202 0 0 -4.54202 925.322 256.724)"/><path d="M0 0v.298c0 1.351-.093 2.355-.279 3.009-.186.653-.629.981-1.328.981-.646 0-1.075-.29-1.285-.872-.21-.582-.315-1.621-.315-3.118V.029c0-1.507.096-2.542.286-3.104.191-.562.629-.843 1.314-.843.565 0 .973.303 1.227.909C-.127-2.403 0-1.4 0 0m1.983-.145c0-1.727-.329-3.045-.987-3.952-.657-.907-1.525-1.361-2.603-1.361-1.068 0-1.933.454-2.593 1.361-.659.907-.989 2.212-.989 3.916v.624c0 1.587.308 2.881.924 3.883.617 1.001 1.519 1.502 2.709 1.502 1.165 0 2.046-.508 2.643-1.525.597-1.015.896-2.303.896-3.86Z" style="fill:#1a5dad;fill-opacity:1;fill-rule:nonzero;stroke:none" transform="matrix(4.54202 0 0 -4.54202 959.52 264.959)"/><path d="m0 0-2.428-10.948h-1.439l-1.839 7.134-1.879-7.134h-1.43L-11.432 0h1.987l1.527-6.936L-6.19 0h1.414l1.752-6.936L-1.594 0Z" style="fill:#1a5dad;fill-opacity:1;fill-rule:nonzero;stroke:none" transform="matrix(4.54202 0 0 -4.54202 1019.878 239.157)"/><path d="M0 0h-5.569v10.948h5.337V9.324h-3.375V6.37h2.615V4.725h-2.615V1.624H0Z" style="fill:#1a5dad;fill-opacity:1;fill-rule:nonzero;stroke:none" transform="matrix(4.54202 0 0 -4.54202 1046.972 288.884)"/><path d="M0 0v.298c0 .478-.103.818-.308 1.022-.204.205-.504.307-.898.307h-.65v-2.911h.541c.467 0 .803.107 1.007.321C-.103-.75 0-.428 0 0m2.151-7.781H.232c-.02 1.763-.156 3.023-.409 3.78-.253.756-.657 1.135-1.212 1.135h-.467v-4.915h-1.962V3.167h3.432c.839 0 1.432-.228 1.782-.683.349-.454.524-1.012.524-1.675V.214c0-.624-.151-1.125-.455-1.502-.304-.377-.756-.599-1.358-.667.679-.257 1.19-.826 1.532-1.709.342-.883.512-2.255.512-4.117" style="fill:#1a5dad;fill-opacity:1;fill-rule:nonzero;stroke:none" transform="matrix(4.54202 0 0 -4.54202 1068.203 253.542)"/><path d="M0 0c-.136-.113-.381-.222-.736-.328a4.414 4.414 0 0 0-1.236-.157c-1.178 0-2.139.456-2.882 1.368-.745.912-1.117 2.251-1.117 4.017v.443c0 1.645.378 2.966 1.134 3.963.756.996 1.704 1.495 2.844 1.495.487 0 .895-.035 1.224-.104.329-.07.584-.161.769-.276v-1.73c-.17.11-.396.208-.679.294a3.479 3.479 0 0 1-.997.128c-.716 0-1.272-.347-1.672-1.041-.398-.693-.597-1.652-.597-2.874v-.153c0-1.31.185-2.278.558-2.904.372-.625.882-.938 1.531-.938.434 0 .806.053 1.116.16.309.107.555.208.74.304z" style="fill:#1a5dad;fill-opacity:1;fill-rule:nonzero;stroke:none" transform="matrix(4.54202 0 0 -4.54202 1119.429 287.544)"/><path d="M0 0v.298c0 1.351-.093 2.355-.278 3.009-.187.653-.629.981-1.328.981-.647 0-1.076-.29-1.286-.872-.21-.582-.314-1.621-.314-3.118V.029c0-1.507.096-2.542.286-3.104.191-.562.628-.843 1.314-.843.564 0 .972.303 1.226.909C-.127-2.403 0-1.4 0 0m1.983-.145c0-1.727-.329-3.045-.986-3.952-.658-.907-1.525-1.361-2.603-1.361-1.069 0-1.933.454-2.593 1.361-.66.907-.99 2.212-.99 3.916v.624c0 1.587.308 2.881.924 3.883.617 1.001 1.52 1.502 2.709 1.502 1.165 0 2.046-.508 2.644-1.525.597-1.015.895-2.303.895-3.86Z" style="fill:#1a5dad;fill-opacity:1;fill-rule:nonzero;stroke:none" transform="matrix(4.54202 0 0 -4.54202 1145.48 264.959)"/><path d="M215.528 81.551h-1.651v-2.055h1.651z" style="fill:#1a5dad;fill-opacity:1;fill-rule:nonzero;stroke:none;stroke-width:.869963" transform="matrix(5.22093 0 0 5.22093 41.305 -136.887)"/><path d="M0 0c0-.863-.201-1.485-.602-1.869-.401-.382-.861-.574-1.381-.574v.928c.336 0 .602.085.8.254.198.17.297.592.297 1.265h-1.097v2.468H0Z" style="fill:#1a5dad;fill-opacity:1;fill-rule:nonzero;stroke:none" transform="matrix(4.54202 0 0 -4.54202 1180.578 288.904)"/><path d="M0 0h-5.211v10.948h1.962V1.624H0Z" style="fill:#1a5dad;fill-opacity:1;fill-rule:nonzero;stroke:none" transform="matrix(4.54202 0 0 -4.54202 1221.509 288.884)"/><path d="M0 0h-1.75v-4.284c0-.437.058-.756.174-.959.115-.203.337-.305.666-.305.159 0 .312.016.46.048.146.031.283.071.408.121v-1.308a2.531 2.531 0 0 0-.728-.224 5.263 5.263 0 0 0-.851-.071c-.608 0-1.092.245-1.449.737-.358.491-.536 1.197-.536 2.118V.021h-.782v1.182l.844.042.634 2.784h1.16V1.266H0Z" style="fill:#1a5dad;fill-opacity:1;fill-rule:nonzero;stroke:none" transform="matrix(4.54202 0 0 -4.54202 1242.902 257.458)"/><path d="M0 0v4.155a1.35 1.35 0 0 1-.389.503c-.168.134-.391.202-.671.202-.383 0-.69-.203-.919-.61-.227-.406-.341-1.148-.341-2.226v-.58c0-.861.09-1.466.27-1.818.18-.35.46-.525.84-.525.259 0 .499.088.72.262.22.176.385.387.49.637m1.856-2.354H.065L.021-1.215c-.28-.461-.564-.787-.854-.979-.289-.191-.648-.287-1.077-.287-.666 0-1.221.274-1.664.824-.444.548-.666 1.507-.666 2.875v.87c0 1.257.237 2.238.713 2.94.474.704 1.175 1.055 2.101 1.055.228 0 .473-.038.739-.115.265-.077.494-.237.687-.479v3.105h1.856z" style="fill:#1a5dad;fill-opacity:1;fill-rule:nonzero;stroke:none" transform="matrix(4.54202 0 0 -4.54202 1264.884 278.192)"/><path d="M238.721 81.551h-1.65v-2.055h1.65z" style="fill:#1a5dad;fill-opacity:1;fill-rule:nonzero;stroke:none;stroke-width:.869963" transform="matrix(5.22093 0 0 5.22093 41.305 -136.887)"/><path d="M0 0c-12.591-4.696-24.548-3.815-26.711 1.975-2.159 5.789 6.297 14.289 18.888 18.987 12.592 4.7 24.55 3.818 26.709-1.971C21.047 13.202 12.589 4.701 0 0m6.912 33.788s5.211 1.197 3.075-3.963c0 0-12.986-1.231-31.096-11.961 0 0 9.431 13.089 28.021 15.924m5.433-3.587c-.329-.027 2.256 6.869-6.083 5.364-22.045-3.976-37.623-18.656-40.903-22.86-3.282-4.202-13.328-21.733 13.224-19.683 26.552 2.05 41.225 17.286 43.262 20.093 7.962 10.97 4.845 18.241-9.5 17.086" style="fill:#e11049;fill-opacity:1;fill-rule:nonzero;stroke:none" transform="matrix(4.54202 0 0 -4.54202 178.271 162.513)"/><path d="M0 0c-.321-1.809-.171-3.153.436-4.03.608-.878 1.496-1.315 2.665-1.315 1.024 0 1.953.419 2.795 1.26.842.841 1.438 2.268 1.794 4.279.325 1.856.203 3.214-.362 4.086-.568.867-1.371 1.303-2.408 1.303-1.126 0-2.137-.44-3.043-1.315C.974 3.393.345 1.97 0 0m-12.365-20.144 5.58 31.645h8.231L.847 8.125c1.392 1.423 2.609 2.389 3.648 2.892a10.1 10.1 0 0 0 4.44 1.015c3.072 0 5.24-1.173 6.503-3.519 1.268-2.348 1.596-5.25.986-8.709-.673-3.817-2.102-6.729-4.288-8.739-2.187-2.007-4.674-3.013-7.471-3.013-1.357 0-2.554.232-3.588.696a6.82 6.82 0 0 0-2.631 2.063l-1.933-10.955z" style="fill:#1a5dad;fill-opacity:1;fill-rule:nonzero;stroke:none" transform="matrix(4.54202 0 0 -4.54202 353.432 140.699)"/><path d="M0 0h8.448l1.163-14.22L16.743 0h7.834l2.296-14.336L33.076 0h8.396L29.063-22.773h-7.767L19.099-9.07l-6.874-13.703H4.428Z" style="fill:#1a5dad;fill-opacity:1;fill-rule:nonzero;stroke:none" transform="matrix(4.54202 0 0 -4.54202 140.682 88.396)"/><path d="M0 0h-18.533v-3.862h15.099v-4.197H-19.98v-3.927h9.042v-2.102h-7.534v-3.924h15.101v-4.551H.06v8.475h-7.564v2.102h9.042v3.927H0Z" style="fill:#1a5dad;fill-opacity:1;fill-rule:nonzero;stroke:none" transform="matrix(4.54202 0 0 -4.54202 687.19 98.62)"/><path d="M162.195 52.372h-9.057v-1.93h9.057zm2.987-7.264H162.195v1.694h-9.056v-1.694h-2.985v10.934h15.028z" style="fill:#1a5dad;fill-opacity:1;fill-rule:nonzero;stroke:none;stroke-width:.869963" transform="matrix(5.22093 0 0 5.22093 41.305 -136.887)"/><path d="M0 0v-4.094h9.04v-4.363h3.435v4.363h9.043V0h-.21z" style="fill:#1a5dad;fill-opacity:1;fill-rule:nonzero;stroke:none" transform="matrix(4.54202 0 0 -4.54202 815.47 161.357)"/><path d="M176.802 52.648h-3.81V50.71h3.81zm2.988-7.54h-2.988v2.296h-3.809v-2.296h-2.986v10.85h9.783z" style="fill:#1a5dad;fill-opacity:1;fill-rule:nonzero;stroke:none;stroke-width:.869963" transform="matrix(5.22093 0 0 5.22093 41.305 -136.887)"/><path d="M0 0h14.21v8.108H-3.434V4.43h14.213v-.749H-3.434v-8.172h18.129v3.679H0Z" style="fill:#1a5dad;fill-opacity:1;fill-rule:nonzero;stroke:none" transform="matrix(4.54202 0 0 -4.54202 947.562 196.332)"/><path d="M0 0H-3.432v-12.436H0v4.495h2.389v3.922H0Z" style="fill:#1a5dad;fill-opacity:1;fill-rule:nonzero;stroke:none" transform="matrix(4.54202 0 0 -4.54202 1012.106 98.778)"/><path d="M0 0h-3.436v-7.097h19.001v3.925H0Z" style="fill:#1a5dad;fill-opacity:1;fill-rule:nonzero;stroke:none" transform="matrix(4.54202 0 0 -4.54202 1055.97 162.732)"/><path d="M0 0v-4.06h-3.518v-3.927H0v-4.551h3.435V0h-.211Z" style="fill:#1a5dad;fill-opacity:1;fill-rule:nonzero;stroke:none" transform="matrix(4.54202 0 0 -4.54202 1111.068 98.62)"/><path d="m0 0 4.202 4.55c.285-.308 4.23-4.546 4.23-4.546l2.381 3.4L5.4 8.792h4.506v3.924H-1.536V8.792h4.511c-.621-.627-5.323-5.356-5.323-5.356Z" style="fill:#1a5dad;fill-opacity:1;fill-rule:nonzero;stroke:none" transform="matrix(4.54202 0 0 -4.54202 1045.176 156.376)"/><path d="m0 0 4.201 4.55C4.486 4.242 8.433.004 8.433.004l2.38 3.4-5.414 5.388h4.506v3.924H-1.536V8.792h4.511c-.621-.627-5.324-5.356-5.324-5.356Z" style="fill:#1a5dad;fill-opacity:1;fill-rule:nonzero;stroke:none" transform="matrix(4.54202 0 0 -4.54202 1205.346 156.376)"/><path d="M214.555 64.254h1.803v-19h-1.803z" style="fill:#1a5dad;fill-opacity:1;fill-rule:nonzero;stroke:none;stroke-width:.869963" transform="matrix(5.22093 0 0 5.22093 41.305 -136.887)"/><path d="M0 0h7.81v-4.363h2.603V0h7.814v3.674H0Z" style="fill:#1a5dad;fill-opacity:1;fill-rule:nonzero;stroke:none" transform="matrix(4.54202 0 0 -4.54202 1183.173 178.997)"/><path d="M236.914 64.254h1.807v-19h-1.807z" style="fill:#1a5dad;fill-opacity:1;fill-rule:nonzero;stroke:none;stroke-width:.869963" transform="matrix(5.22093 0 0 5.22093 41.305 -136.887)"/><path d="M0 0c-.417-.438-.91-.658-1.475-.658h-.002c-.606 0-1.121.22-1.537.658-.419.419-.628.91-.628 1.476 0 .587.209 1.08.628 1.477.416.418.931.627 1.537.627h.002c.565 0 1.058-.209 1.475-.627.419-.421.628-.91.628-1.477C.628.91.419.419 0 0m4.034 1.502c0 1.468-.543 2.744-1.63 3.83-1.089 1.085-2.362 1.63-3.83 1.63-1.576 0-2.907-.545-3.992-1.63-1.089-1.034-1.629-2.308-1.629-3.83 0-1.468.54-2.746 1.629-3.831 1.085-1.143 2.416-1.712 3.992-1.712 1.468 0 2.741.569 3.83 1.712 1.087 1.085 1.63 2.363 1.63 3.831" style="fill:#1a5dad;fill-opacity:1;fill-rule:nonzero;stroke:none" transform="matrix(4.54202 0 0 -4.54202 524.072 137.527)"/><path d="M0 0h-3.434v-7.098h18.473v3.926H0Z" style="fill:#1a5dad;fill-opacity:1;fill-rule:nonzero;stroke:none" transform="matrix(4.54202 0 0 -4.54202 508.497 162.597)"/><path d="M0 0v4.021h-3.432V-8.475H0v4.552h2.385V0Z" style="fill:#1a5dad;fill-opacity:1;fill-rule:nonzero;stroke:none" transform="matrix(4.54202 0 0 -4.54202 574.16 116.942)"/><path d="M0 0h-4.24v2.762h-3.433V0h-4.269v-4.114H0Z" style="fill:#1a5dad;fill-opacity:1;fill-rule:nonzero;stroke:none" transform="matrix(4.54202 0 0 -4.54202 543.846 98.594)"/><path d="M0 0v-4.019h-3.516v-3.925H0v-13.251h3.434V0h-.209Z" style="fill:#1a5dad;fill-opacity:1;fill-rule:nonzero;stroke:none" transform="matrix(4.54202 0 0 -4.54202 782.517 98.7)"/><path d="m0 0-5.918-11.911 3.238-2.204L.711-7.329l3.42-6.783 3.275 2.201L1.488 0Z" style="fill:#1a5dad;fill-opacity:1;fill-rule:nonzero;stroke:none" transform="matrix(4.54202 0 0 -4.54202 732.912 98.62)"/></svg>