<svg xmlns="http://www.w3.org/2000/svg" width="869.37823mm" height="100mm" viewBox="0 0 869.37823 100"><path d="M0 0c0 1.666-1.44 3.017-3.217 3.017l-17.988.004V.033h17.231l.353-.089v-2.373h-18.858v-2.982h10.43a1.965 1.965 0 0 1-.022-2.54l-9.134.002v-2.989h17.231l.353-.088v-4.325h3.618L0-10.97c0 1.667-1.44 3.018-3.217 3.018h-5.831c.285.342.455.78.455 1.259 0 .49-.18.938-.477 1.282H1.353v2.982H-.002z" style="fill:#244ba6;fill-opacity:1;fill-rule:nonzero;stroke:none" transform="matrix(3.52262 0 0 -3.52262 355.164 29.866)"/><path d="M0 0a2.06 2.06 0 0 1-1.615-.782v4.657h-3.617v-16.048H-19.22v2.951h-3.617l-.003-2.92c0-1.666 1.441-3.019 3.217-3.019h17.99v.001h.018v11.819A2.062 2.062 0 1 1 0 0" style="fill:#244ba6;fill-opacity:1;fill-rule:nonzero;stroke:none" transform="matrix(3.52262 0 0 -3.52262 263.312 30.534)"/><path d="M0 0a2.22 2.22 0 1 0-.001 4.441A2.22 2.22 0 0 0 0 0m-5.394 2.221a5.394 5.394 0 1 1 10.062 2.7h3.27v2.982H1.064a1.966 1.966 0 1 1-2.126 0h-6.874V4.921h3.268a5.37 5.37 0 0 1-.726-2.7" style="fill:#244ba6;fill-opacity:1;fill-rule:nonzero;stroke:none" transform="matrix(3.52262 0 0 -3.52262 206.162 52.117)"/><path d="m0 0 4.422 7.368L8.81.008h3.97l-4.418 7.41h3.985V10.4H-3.53V7.418H.481L-3.972 0Z" style="fill:#244ba6;fill-opacity:1;fill-rule:nonzero;stroke:none" transform="matrix(3.52262 0 0 -3.52262 672.396 55.877)"/><path d="M0 0h-3.617v-4.34a2.062 2.062 0 1 1 0-2.565v-9.138h-13.968v3.606h-3.618l-.003-3.575c0-1.666 1.44-3.016 3.217-3.016l14.372-.002v-.001H0v2.988z" style="fill:#244ba6;fill-opacity:1;fill-rule:nonzero;stroke:none" transform="matrix(3.52262 0 0 -3.52262 739.412 16.9)"/><path d="M0 0a2.062 2.062 0 1 1 0-2.559v-12.487h3.617V3.989H0Z" style="fill:#244ba6;fill-opacity:1;fill-rule:nonzero;stroke:none" transform="matrix(3.52262 0 0 -3.52262 533.71 30.936)"/><path d="M0 0h-3.975l-5.762-9.592h3.972l4.602 7.658 4.602-7.658h3.973L1.646 0Z" style="fill:#244ba6;fill-opacity:1;fill-rule:nonzero;stroke:none" transform="matrix(3.52262 0 0 -3.52262 499.072 19.24)"/><path d="M319.012 189.69h-23.348v-3.273h23.348zm9.764 7.066v-2.484h.005v-17.77h-9.77v2.882h-23.347v-2.879h-9.761l.005 12.69c.005 4.178 3.61 7.561 8.06 7.561z" style="fill:#244ba6;fill-opacity:1;fill-rule:nonzero;stroke:none;stroke-width:2.70016" transform="matrix(1.3046 0 0 1.3046 188.75 -211.032)"/><path d="M0 0a2.063 2.063 0 0 1-1.615-.782v4.657h-3.616v-9.236h-17.6v-2.617h17.594v-.985h-17.596v-2.604h.002v-.798c.002-1.547 1.339-2.8 2.985-2.8h18.228v2.617h-17.6v.981h17.603v.263h.002v3.143l-.002.04v4.78A2.063 2.063 0 1 1 0 0" style="fill:#244ba6;fill-opacity:1;fill-rule:nonzero;stroke:none" transform="matrix(3.52262 0 0 -3.52262 646.847 30.534)"/><path d="M0 0a2.22 2.22 0 0 0 0 4.441A2.22 2.22 0 1 0 0 0m1.81 8.854h8.793v2.988H-6.628l-.352.001V13.5h17.584v2.982h-18.62v-.001h-2.586l.002-4.608c0-1.666 1.44-3.019 3.215-3.019h5.576V7.786h-10.097V4.802h7.171a5.394 5.394 0 1 1 9.471 0h7.189v2.984H1.81Z" style="fill:#244ba6;fill-opacity:1;fill-rule:nonzero;stroke:none" transform="matrix(3.52262 0 0 -3.52262 413.088 77.294)"/><path d="M519.007 227.91h2.709V172.9h-2.709zM440.103 227.91h2.709V172.9h-2.709z" style="fill:#244ba6;fill-opacity:1;fill-rule:nonzero;stroke:none;stroke-width:2.70016" transform="matrix(1.3046 0 0 1.3046 188.75 -211.032)"/><path d="M0 0h10.106v-4.414h3.619V0h10.106v2.982H0Z" style="fill:#244ba6;fill-opacity:1;fill-rule:nonzero;stroke:none" transform="matrix(3.52262 0 0 -3.52262 774.17 68.385)"/><path d="m0 0 6.602 6.602L13.203 0h4.816l-6.613 6.613h5.799v2.983H-4V6.613h5.797L-4.814 0Z" style="fill:#244ba6;fill-opacity:1;fill-rule:nonzero;stroke:none" transform="matrix(3.52262 0 0 -3.52262 792.887 53.035)"/><path d="M0 0c-3.017 0-5.812-.941-8.11-2.546A14.12 14.12 0 0 1-16.222 0c-7.838 0-14.193-6.355-14.193-14.194 0-7.838 6.355-14.194 14.193-14.194 3.017 0 5.813.942 8.112 2.546A14.12 14.12 0 0 1 0-28.388c7.839 0 14.193 6.356 14.193 14.194C14.193-6.355 7.839 0 0 0" style="fill:#fff;fill-opacity:1;fill-rule:nonzero;stroke:none" transform="matrix(3.52262 0 0 -3.52262 107.14 0)"/><path d="M0 0a13.74 13.74 0 0 1-.795 1.626L-15.851-9.84l-5.37-4.088-2.098-1.325-6.83-4.31a14.081 14.081 0 0 1 3.389.209l3.96 3.588 1.579 1.432 4.928 3.328z" style="fill:#ed192d;fill-opacity:1;fill-rule:nonzero;stroke:none" transform="matrix(3.52262 0 0 -3.52262 153.323 30.964)"/><path d="m0 0-21.333-16.486a14.117 14.117 0 0 1 7.966-2.449C-5.535-18.935.815-12.584.815-4.75.815-3.085.527-1.486 0 0" style="fill:#ed192d;fill-opacity:1;fill-rule:nonzero;stroke:none" transform="matrix(3.52262 0 0 -3.52262 154.21 33.265)"/><path d="M0 0c-7.835 0-14.184-6.35-14.184-14.183 0-1.667.288-3.266.818-4.753L7.962-2.445A14.116 14.116 0 0 1 0 0" style="fill:#ed192d;fill-opacity:1;fill-rule:nonzero;stroke:none" transform="matrix(3.52262 0 0 -3.52262 50.022 .038)"/><path d="m0 0 4.805 3.167 10.027 6.609a14.05 14.05 0 0 1-1.836.829l-8.549-6.71L0 .401-6.049-3.65l-12.658-8.484c.401-.45.83-.876 1.285-1.272l11.465 8.823z" style="fill:#ed192d;fill-opacity:1;fill-rule:nonzero;stroke:none" transform="matrix(3.52262 0 0 -3.52262 78.57 40.445)"/><path d="m0 0 5.631 3.747 11.325 7.537c-.488.39-1.003.749-1.538 1.073L5.388 4.583 0 .407l-5.631-3.749-11.324-7.54a14.2 14.2 0 0 1 1.54-1.072l10.026 7.775z" style="fill:#ed192d;fill-opacity:1;fill-rule:nonzero;stroke:none" transform="matrix(3.52262 0 0 -3.52262 78.57 50.71)"/><path d="m0 0 6.049 4.049 12.658 8.48c-.401.451-.83.876-1.285 1.274L5.955 4.984 0 .406l-4.808-3.171-10.027-6.614a14.15 14.15 0 0 1 1.839-.829l8.547 6.713z" style="fill:#ed192d;fill-opacity:1;fill-rule:nonzero;stroke:none" transform="matrix(3.52262 0 0 -3.52262 78.57 60.95)"/><path d="m0 0 3.625 2.354L12.24 7.95c-.726.221-1.473.384-2.245.487L3.184 2.964 0 .406l-5.932-3.995-14.195-9.559a14.56 14.56 0 0 1 1.044-1.453l13.04 9.977z" style="fill:#ed192d;fill-opacity:1;fill-rule:nonzero;stroke:none" transform="matrix(3.52262 0 0 -3.52262 78.57 30.2)"/><path d="m0 0 2.094 1.32 6.828 4.307a14.373 14.373 0 0 1-3.368-.205L1.578 1.828 0 .403l-4.927-3.33-16.294-11.011c.232-.561.496-1.105.795-1.625L-5.367-4.089z" style="fill:#ed192d;fill-opacity:1;fill-rule:nonzero;stroke:none" transform="matrix(3.52262 0 0 -3.52262 78.57 19.942)"/><path d="m0 0 5.934 3.993 14.195 9.555c-.319.507-.668.992-1.045 1.453L6.043 5.027 0 .406-3.627-1.95l-8.613-5.597a13.946 13.946 0 0 1 2.242-.489l6.812 5.475z" style="fill:#ed192d;fill-opacity:1;fill-rule:nonzero;stroke:none" transform="matrix(3.52262 0 0 -3.52262 78.57 71.212)"/><path d="M0 0a4.075 4.075 0 0 1 4.074-4.074h4.449v2.205H4.27c-.619 0-1.163.303-1.502.765h5.769v2.207H2.768a1.86 1.86 0 0 0 1.502.766l4.296-.001v2.206H4.074A4.075 4.075 0 0 1 0 0" style="fill:#ed192d;fill-opacity:1;fill-rule:nonzero;stroke:none" transform="matrix(3.52262 0 0 -3.52262 32.529 49.777)"/><path d="M0 0a4.075 4.075 0 0 1 4.074-4.074h4.449v2.205H4.27c-.619 0-1.163.303-1.502.765h5.769v2.207H2.768a1.86 1.86 0 0 0 1.502.766l4.296-.001v2.206H4.074A4.075 4.075 0 0 1 0 0Z" style="fill:none;stroke:#ed192d;stroke-width:.83;stroke-linecap:butt;stroke-linejoin:miter;stroke-miterlimit:4;stroke-dasharray:none;stroke-opacity:1" transform="matrix(3.52262 0 0 -3.52262 32.529 49.777)"/><path d="M0 0H-5.568v-2.205H0a.766.766 0 0 0 0-1.532h-5.54v-2.204h.001v-2.202h2.511v2.202H0A2.971 2.971 0 0 1 0 0" style="fill:#ed192d;fill-opacity:1;fill-rule:nonzero;stroke:none" transform="matrix(3.52262 0 0 -3.52262 119.996 35.446)"/><path d="M0 0H-5.568v-2.205H0a.766.766 0 0 0 0-1.532h-5.54v-2.204h.001v-2.202h2.511v2.202H0A2.971 2.971 0 0 1 0 0Z" style="fill:none;stroke:#ed192d;stroke-width:.83;stroke-linecap:butt;stroke-linejoin:miter;stroke-miterlimit:4;stroke-dasharray:none;stroke-opacity:1" transform="matrix(3.52262 0 0 -3.52262 119.996 35.446)"/><path d="M0 0a.766.766 0 0 0-1.53 0v5.304h-2.207V0a.765.765 0 0 0-1.531 0v5.304h-2.207V0a2.972 2.972 0 0 1 2.972-2.972c.708 0 1.358.25 1.868.664a2.96 2.96 0 0 1 1.867-.664A2.974 2.974 0 0 1 2.206 0v5.304H0Z" style="fill:#ed192d;fill-opacity:1;fill-rule:nonzero;stroke:none" transform="matrix(3.52262 0 0 -3.52262 90.817 54.108)"/><path d="M0 0a.766.766 0 0 0-1.53 0v5.304h-2.207V0a.765.765 0 0 0-1.531 0v5.304h-2.207V0a2.972 2.972 0 0 1 2.972-2.972c.708 0 1.358.25 1.868.664a2.96 2.96 0 0 1 1.867-.664A2.974 2.974 0 0 1 2.206 0v5.304H0Z" style="fill:none;stroke:#ed192d;stroke-width:.83;stroke-linecap:butt;stroke-linejoin:miter;stroke-miterlimit:4;stroke-dasharray:none;stroke-opacity:1" transform="matrix(3.52262 0 0 -3.52262 90.817 54.108)"/><path d="M0 0a4.075 4.075 0 0 1 4.074-4.074h4.449v2.205H4.27c-.619 0-1.163.303-1.502.765h5.769v2.207H2.768a1.86 1.86 0 0 0 1.502.766l4.296-.001v2.206H4.074A4.075 4.075 0 0 1 0 0" style="fill:#fff;fill-opacity:1;fill-rule:nonzero;stroke:none" transform="matrix(3.52262 0 0 -3.52262 32.529 49.777)"/><path d="M0 0H-5.568v-2.205H0a.766.766 0 0 0 0-1.532h-5.54v-2.204h.001v-2.202h2.511v2.202H0A2.971 2.971 0 0 1 0 0" style="fill:#fff;fill-opacity:1;fill-rule:nonzero;stroke:none" transform="matrix(3.52262 0 0 -3.52262 119.996 35.446)"/><path d="M0 0a.766.766 0 0 0-1.53 0v5.304h-2.207V0a.765.765 0 0 0-1.531 0v5.304h-2.207V0a2.972 2.972 0 0 1 2.972-2.972c.708 0 1.358.25 1.868.664a2.96 2.96 0 0 1 1.867-.664A2.974 2.974 0 0 1 2.206 0v5.304H0Z" style="fill:#fff;fill-opacity:1;fill-rule:nonzero;stroke:none" transform="matrix(3.52262 0 0 -3.52262 90.817 54.108)"/></svg>